<mxfile host="app.diagrams.net" modified="2023-01-01T10:50:55.703Z" agent="5.0 (Windows NT 10.0; Win64; x64) AppleWebKit/537.36 (KHTML, like Gecko) Chrome/108.0.0.0 Safari/537.36" etag="NsGSujeW-COwvqFmqX9v" version="20.7.4" type="github">
  <diagram id="C5RBs43oDa-KdzZeNtuy" name="Page-1">
    <mxGraphModel dx="1444" dy="782" grid="1" gridSize="10" guides="1" tooltips="1" connect="1" arrows="1" fold="1" page="1" pageScale="1" pageWidth="827" pageHeight="1169" math="0" shadow="0">
      <root>
        <mxCell id="WIyWlLk6GJQsqaUBKTNV-0" />
        <mxCell id="WIyWlLk6GJQsqaUBKTNV-1" parent="WIyWlLk6GJQsqaUBKTNV-0" />
        <mxCell id="WIyWlLk6GJQsqaUBKTNV-3" value="Start input()" style="rounded=1;whiteSpace=wrap;html=1;fontSize=12;glass=0;strokeWidth=1;shadow=0;" parent="WIyWlLk6GJQsqaUBKTNV-1" vertex="1">
          <mxGeometry x="115" y="20" width="120" height="40" as="geometry" />
        </mxCell>
        <mxCell id="qR_2f_jSWBMP4PxHylpx-0" value="&lt;div&gt;name,id: string&lt;/div&gt;&lt;div&gt;&amp;nbsp; &amp;nbsp; tempo,tempohutang:int&lt;/div&gt;&lt;div&gt;&amp;nbsp; &amp;nbsp; pendapatan,hutang,limit,hutangbulanan:double&lt;/div&gt;" style="shape=hexagon;perimeter=hexagonPerimeter2;whiteSpace=wrap;html=1;fixedSize=1;" vertex="1" parent="WIyWlLk6GJQsqaUBKTNV-1">
          <mxGeometry x="20" y="80" width="310" height="80" as="geometry" />
        </mxCell>
        <mxCell id="qR_2f_jSWBMP4PxHylpx-1" value="" style="endArrow=classic;html=1;rounded=0;entryX=0.5;entryY=0;entryDx=0;entryDy=0;exitX=0.5;exitY=1;exitDx=0;exitDy=0;" edge="1" parent="WIyWlLk6GJQsqaUBKTNV-1" source="WIyWlLk6GJQsqaUBKTNV-3" target="qR_2f_jSWBMP4PxHylpx-0">
          <mxGeometry width="50" height="50" relative="1" as="geometry">
            <mxPoint x="170" y="59.289321881345245" as="sourcePoint" />
            <mxPoint x="170" y="9.289321881345245" as="targetPoint" />
          </mxGeometry>
        </mxCell>
        <mxCell id="qR_2f_jSWBMP4PxHylpx-4" value="input name,id,pendapatan,hutang,tempohutang" style="shape=parallelogram;perimeter=parallelogramPerimeter;whiteSpace=wrap;html=1;fixedSize=1;" vertex="1" parent="WIyWlLk6GJQsqaUBKTNV-1">
          <mxGeometry x="30" y="180" width="290" height="60" as="geometry" />
        </mxCell>
        <mxCell id="qR_2f_jSWBMP4PxHylpx-5" value="" style="endArrow=classic;html=1;rounded=0;exitX=0.5;exitY=1;exitDx=0;exitDy=0;entryX=0.5;entryY=0;entryDx=0;entryDy=0;" edge="1" parent="WIyWlLk6GJQsqaUBKTNV-1" source="qR_2f_jSWBMP4PxHylpx-0" target="qR_2f_jSWBMP4PxHylpx-4">
          <mxGeometry width="50" height="50" relative="1" as="geometry">
            <mxPoint x="155" y="210" as="sourcePoint" />
            <mxPoint x="205" y="160" as="targetPoint" />
          </mxGeometry>
        </mxCell>
        <mxCell id="qR_2f_jSWBMP4PxHylpx-6" value="hutangbulanan = hutang/tempohutang;" style="rounded=0;whiteSpace=wrap;html=1;" vertex="1" parent="WIyWlLk6GJQsqaUBKTNV-1">
          <mxGeometry x="57.5" y="260" width="235" height="60" as="geometry" />
        </mxCell>
        <mxCell id="qR_2f_jSWBMP4PxHylpx-7" value="" style="endArrow=classic;html=1;rounded=0;exitX=0.5;exitY=1;exitDx=0;exitDy=0;entryX=0.5;entryY=0;entryDx=0;entryDy=0;" edge="1" parent="WIyWlLk6GJQsqaUBKTNV-1" source="qR_2f_jSWBMP4PxHylpx-4" target="qR_2f_jSWBMP4PxHylpx-6">
          <mxGeometry width="50" height="50" relative="1" as="geometry">
            <mxPoint x="140" y="290" as="sourcePoint" />
            <mxPoint x="190" y="240" as="targetPoint" />
          </mxGeometry>
        </mxCell>
        <mxCell id="qR_2f_jSWBMP4PxHylpx-8" value="hutangbulanan&lt;((0.8)*pendapatan" style="rhombus;whiteSpace=wrap;html=1;" vertex="1" parent="WIyWlLk6GJQsqaUBKTNV-1">
          <mxGeometry x="57" y="340" width="236" height="80" as="geometry" />
        </mxCell>
        <mxCell id="qR_2f_jSWBMP4PxHylpx-12" value="" style="endArrow=classic;html=1;rounded=0;exitX=0.5;exitY=1;exitDx=0;exitDy=0;" edge="1" parent="WIyWlLk6GJQsqaUBKTNV-1" source="qR_2f_jSWBMP4PxHylpx-6" target="qR_2f_jSWBMP4PxHylpx-8">
          <mxGeometry width="50" height="50" relative="1" as="geometry">
            <mxPoint x="-40" y="390" as="sourcePoint" />
            <mxPoint x="10" y="340" as="targetPoint" />
          </mxGeometry>
        </mxCell>
        <mxCell id="qR_2f_jSWBMP4PxHylpx-13" value="" style="endArrow=classic;html=1;rounded=0;exitX=0.5;exitY=1;exitDx=0;exitDy=0;" edge="1" parent="WIyWlLk6GJQsqaUBKTNV-1" source="qR_2f_jSWBMP4PxHylpx-8">
          <mxGeometry width="50" height="50" relative="1" as="geometry">
            <mxPoint x="170" y="490" as="sourcePoint" />
            <mxPoint x="175" y="460" as="targetPoint" />
          </mxGeometry>
        </mxCell>
        <mxCell id="qR_2f_jSWBMP4PxHylpx-14" value="output &quot;Hutang bank Anda terlalu tinggi, kartu kredit tidak bisa diajukan&quot;" style="shape=parallelogram;perimeter=parallelogramPerimeter;whiteSpace=wrap;html=1;fixedSize=1;" vertex="1" parent="WIyWlLk6GJQsqaUBKTNV-1">
          <mxGeometry x="37.5" y="460" width="275" height="60" as="geometry" />
        </mxCell>
        <mxCell id="qR_2f_jSWBMP4PxHylpx-16" value="" style="endArrow=classic;html=1;rounded=0;exitX=0.5;exitY=1;exitDx=0;exitDy=0;entryX=0;entryY=0.5;entryDx=0;entryDy=0;" edge="1" parent="WIyWlLk6GJQsqaUBKTNV-1" source="qR_2f_jSWBMP4PxHylpx-14" target="qR_2f_jSWBMP4PxHylpx-102">
          <mxGeometry width="50" height="50" relative="1" as="geometry">
            <mxPoint x="30" y="580" as="sourcePoint" />
            <mxPoint x="175" y="550" as="targetPoint" />
            <Array as="points">
              <mxPoint x="175" y="550" />
              <mxPoint x="10" y="550" />
              <mxPoint x="10" y="1060" />
            </Array>
          </mxGeometry>
        </mxCell>
        <mxCell id="qR_2f_jSWBMP4PxHylpx-20" value="No" style="text;html=1;strokeColor=none;fillColor=none;align=center;verticalAlign=middle;whiteSpace=wrap;rounded=0;" vertex="1" parent="WIyWlLk6GJQsqaUBKTNV-1">
          <mxGeometry x="160" y="420" width="60" height="30" as="geometry" />
        </mxCell>
        <mxCell id="qR_2f_jSWBMP4PxHylpx-21" value="pendapatan&amp;lt;3000000" style="rhombus;whiteSpace=wrap;html=1;" vertex="1" parent="WIyWlLk6GJQsqaUBKTNV-1">
          <mxGeometry x="428" y="10" width="160" height="80" as="geometry" />
        </mxCell>
        <mxCell id="qR_2f_jSWBMP4PxHylpx-22" value="pendapatan&amp;lt;5000000" style="rhombus;whiteSpace=wrap;html=1;" vertex="1" parent="WIyWlLk6GJQsqaUBKTNV-1">
          <mxGeometry x="428" y="120" width="160" height="80" as="geometry" />
        </mxCell>
        <mxCell id="qR_2f_jSWBMP4PxHylpx-23" value="pendapatan&amp;lt;20000000" style="rhombus;whiteSpace=wrap;html=1;" vertex="1" parent="WIyWlLk6GJQsqaUBKTNV-1">
          <mxGeometry x="428" y="450" width="160" height="80" as="geometry" />
        </mxCell>
        <mxCell id="qR_2f_jSWBMP4PxHylpx-24" value="pendapatan&amp;lt;50000000" style="rhombus;whiteSpace=wrap;html=1;" vertex="1" parent="WIyWlLk6GJQsqaUBKTNV-1">
          <mxGeometry x="418" y="560" width="180" height="80" as="geometry" />
        </mxCell>
        <mxCell id="qR_2f_jSWBMP4PxHylpx-25" value="pendapatan&amp;lt;15000000" style="rhombus;whiteSpace=wrap;html=1;" vertex="1" parent="WIyWlLk6GJQsqaUBKTNV-1">
          <mxGeometry x="428" y="330" width="160" height="80" as="geometry" />
        </mxCell>
        <mxCell id="qR_2f_jSWBMP4PxHylpx-26" value="pendapatan&amp;lt;10000000" style="rhombus;whiteSpace=wrap;html=1;" vertex="1" parent="WIyWlLk6GJQsqaUBKTNV-1">
          <mxGeometry x="428" y="220" width="160" height="80" as="geometry" />
        </mxCell>
        <mxCell id="qR_2f_jSWBMP4PxHylpx-29" value="Yes" style="text;html=1;strokeColor=none;fillColor=none;align=center;verticalAlign=middle;whiteSpace=wrap;rounded=0;" vertex="1" parent="WIyWlLk6GJQsqaUBKTNV-1">
          <mxGeometry x="307.5" y="355" width="60" height="30" as="geometry" />
        </mxCell>
        <mxCell id="qR_2f_jSWBMP4PxHylpx-30" value="" style="endArrow=classic;html=1;rounded=0;exitX=0.5;exitY=1;exitDx=0;exitDy=0;entryX=0.5;entryY=0;entryDx=0;entryDy=0;" edge="1" parent="WIyWlLk6GJQsqaUBKTNV-1" source="qR_2f_jSWBMP4PxHylpx-21" target="qR_2f_jSWBMP4PxHylpx-22">
          <mxGeometry width="50" height="50" relative="1" as="geometry">
            <mxPoint x="588" y="50" as="sourcePoint" />
            <mxPoint x="628" y="40" as="targetPoint" />
          </mxGeometry>
        </mxCell>
        <mxCell id="qR_2f_jSWBMP4PxHylpx-31" value="" style="endArrow=classic;html=1;rounded=0;exitX=0.5;exitY=1;exitDx=0;exitDy=0;entryX=0.5;entryY=0;entryDx=0;entryDy=0;" edge="1" parent="WIyWlLk6GJQsqaUBKTNV-1" source="qR_2f_jSWBMP4PxHylpx-22" target="qR_2f_jSWBMP4PxHylpx-26">
          <mxGeometry width="50" height="50" relative="1" as="geometry">
            <mxPoint x="598" y="50" as="sourcePoint" />
            <mxPoint x="618" y="50" as="targetPoint" />
          </mxGeometry>
        </mxCell>
        <mxCell id="qR_2f_jSWBMP4PxHylpx-32" value="" style="endArrow=classic;html=1;rounded=0;exitX=0.5;exitY=1;exitDx=0;exitDy=0;entryX=0.5;entryY=0;entryDx=0;entryDy=0;" edge="1" parent="WIyWlLk6GJQsqaUBKTNV-1" source="qR_2f_jSWBMP4PxHylpx-26" target="qR_2f_jSWBMP4PxHylpx-25">
          <mxGeometry width="50" height="50" relative="1" as="geometry">
            <mxPoint x="608" y="60" as="sourcePoint" />
            <mxPoint x="471" y="390" as="targetPoint" />
          </mxGeometry>
        </mxCell>
        <mxCell id="qR_2f_jSWBMP4PxHylpx-33" value="" style="endArrow=classic;html=1;rounded=0;exitX=0.5;exitY=1;exitDx=0;exitDy=0;entryX=0.5;entryY=0;entryDx=0;entryDy=0;" edge="1" parent="WIyWlLk6GJQsqaUBKTNV-1" source="qR_2f_jSWBMP4PxHylpx-25" target="qR_2f_jSWBMP4PxHylpx-23">
          <mxGeometry width="50" height="50" relative="1" as="geometry">
            <mxPoint x="885.5" y="80" as="sourcePoint" />
            <mxPoint x="885.5" y="60" as="targetPoint" />
          </mxGeometry>
        </mxCell>
        <mxCell id="qR_2f_jSWBMP4PxHylpx-34" value="" style="endArrow=classic;html=1;rounded=0;exitX=0.5;exitY=1;exitDx=0;exitDy=0;entryX=0.5;entryY=0;entryDx=0;entryDy=0;" edge="1" parent="WIyWlLk6GJQsqaUBKTNV-1" source="qR_2f_jSWBMP4PxHylpx-23" target="qR_2f_jSWBMP4PxHylpx-24">
          <mxGeometry width="50" height="50" relative="1" as="geometry">
            <mxPoint x="805.5" y="170" as="sourcePoint" />
            <mxPoint x="855.5" y="120" as="targetPoint" />
          </mxGeometry>
        </mxCell>
        <mxCell id="qR_2f_jSWBMP4PxHylpx-35" value="No" style="text;html=1;strokeColor=none;fillColor=none;align=center;verticalAlign=middle;whiteSpace=wrap;rounded=0;" vertex="1" parent="WIyWlLk6GJQsqaUBKTNV-1">
          <mxGeometry x="458" y="85" width="60" height="30" as="geometry" />
        </mxCell>
        <mxCell id="qR_2f_jSWBMP4PxHylpx-37" value="No" style="text;html=1;strokeColor=none;fillColor=none;align=center;verticalAlign=middle;whiteSpace=wrap;rounded=0;" vertex="1" parent="WIyWlLk6GJQsqaUBKTNV-1">
          <mxGeometry x="458" y="190" width="60" height="30" as="geometry" />
        </mxCell>
        <mxCell id="qR_2f_jSWBMP4PxHylpx-38" value="No" style="text;html=1;strokeColor=none;fillColor=none;align=center;verticalAlign=middle;whiteSpace=wrap;rounded=0;" vertex="1" parent="WIyWlLk6GJQsqaUBKTNV-1">
          <mxGeometry x="458" y="300" width="60" height="30" as="geometry" />
        </mxCell>
        <mxCell id="qR_2f_jSWBMP4PxHylpx-39" value="No" style="text;html=1;strokeColor=none;fillColor=none;align=center;verticalAlign=middle;whiteSpace=wrap;rounded=0;" vertex="1" parent="WIyWlLk6GJQsqaUBKTNV-1">
          <mxGeometry x="458" y="530" width="60" height="30" as="geometry" />
        </mxCell>
        <mxCell id="qR_2f_jSWBMP4PxHylpx-40" value="No" style="text;html=1;strokeColor=none;fillColor=none;align=center;verticalAlign=middle;whiteSpace=wrap;rounded=0;" vertex="1" parent="WIyWlLk6GJQsqaUBKTNV-1">
          <mxGeometry x="468" y="410" width="60" height="30" as="geometry" />
        </mxCell>
        <mxCell id="qR_2f_jSWBMP4PxHylpx-45" value="" style="endArrow=classic;html=1;rounded=0;exitX=1;exitY=0.5;exitDx=0;exitDy=0;entryX=0;entryY=0.5;entryDx=0;entryDy=0;" edge="1" parent="WIyWlLk6GJQsqaUBKTNV-1" source="qR_2f_jSWBMP4PxHylpx-21">
          <mxGeometry width="50" height="50" relative="1" as="geometry">
            <mxPoint x="598" y="80" as="sourcePoint" />
            <mxPoint x="638" y="50" as="targetPoint" />
          </mxGeometry>
        </mxCell>
        <mxCell id="qR_2f_jSWBMP4PxHylpx-50" value="" style="endArrow=classic;html=1;rounded=0;exitX=1;exitY=0.5;exitDx=0;exitDy=0;entryX=0;entryY=0.5;entryDx=0;entryDy=0;" edge="1" parent="WIyWlLk6GJQsqaUBKTNV-1" source="qR_2f_jSWBMP4PxHylpx-22">
          <mxGeometry width="50" height="50" relative="1" as="geometry">
            <mxPoint x="588" y="190" as="sourcePoint" />
            <mxPoint x="628" y="160" as="targetPoint" />
          </mxGeometry>
        </mxCell>
        <mxCell id="qR_2f_jSWBMP4PxHylpx-55" value="" style="endArrow=classic;html=1;rounded=0;exitX=1;exitY=0.5;exitDx=0;exitDy=0;entryX=0;entryY=0.5;entryDx=0;entryDy=0;" edge="1" parent="WIyWlLk6GJQsqaUBKTNV-1" source="qR_2f_jSWBMP4PxHylpx-26">
          <mxGeometry width="50" height="50" relative="1" as="geometry">
            <mxPoint x="598" y="170" as="sourcePoint" />
            <mxPoint x="618" y="260" as="targetPoint" />
          </mxGeometry>
        </mxCell>
        <mxCell id="qR_2f_jSWBMP4PxHylpx-56" value="" style="endArrow=classic;html=1;rounded=0;exitX=1;exitY=0.5;exitDx=0;exitDy=0;entryX=0;entryY=0.5;entryDx=0;entryDy=0;" edge="1" parent="WIyWlLk6GJQsqaUBKTNV-1" source="qR_2f_jSWBMP4PxHylpx-25" target="qR_2f_jSWBMP4PxHylpx-71">
          <mxGeometry width="50" height="50" relative="1" as="geometry">
            <mxPoint x="598" y="270" as="sourcePoint" />
            <mxPoint x="621.8461538461538" y="368.46153846153857" as="targetPoint" />
          </mxGeometry>
        </mxCell>
        <mxCell id="qR_2f_jSWBMP4PxHylpx-57" value="" style="endArrow=classic;html=1;rounded=0;exitX=1;exitY=0.5;exitDx=0;exitDy=0;" edge="1" parent="WIyWlLk6GJQsqaUBKTNV-1" source="qR_2f_jSWBMP4PxHylpx-23">
          <mxGeometry width="50" height="50" relative="1" as="geometry">
            <mxPoint x="598" y="380" as="sourcePoint" />
            <mxPoint x="628" y="490" as="targetPoint" />
          </mxGeometry>
        </mxCell>
        <mxCell id="qR_2f_jSWBMP4PxHylpx-58" value="" style="endArrow=classic;html=1;rounded=0;exitX=1;exitY=0.5;exitDx=0;exitDy=0;entryX=0;entryY=0.5;entryDx=0;entryDy=0;" edge="1" parent="WIyWlLk6GJQsqaUBKTNV-1" source="qR_2f_jSWBMP4PxHylpx-24" target="qR_2f_jSWBMP4PxHylpx-73">
          <mxGeometry width="50" height="50" relative="1" as="geometry">
            <mxPoint x="598" y="500" as="sourcePoint" />
            <mxPoint x="618" y="600" as="targetPoint" />
          </mxGeometry>
        </mxCell>
        <mxCell id="qR_2f_jSWBMP4PxHylpx-59" value="Yes" style="text;html=1;strokeColor=none;fillColor=none;align=center;verticalAlign=middle;whiteSpace=wrap;rounded=0;" vertex="1" parent="WIyWlLk6GJQsqaUBKTNV-1">
          <mxGeometry x="578" y="25" width="60" height="30" as="geometry" />
        </mxCell>
        <mxCell id="qR_2f_jSWBMP4PxHylpx-60" value="Yes" style="text;html=1;strokeColor=none;fillColor=none;align=center;verticalAlign=middle;whiteSpace=wrap;rounded=0;" vertex="1" parent="WIyWlLk6GJQsqaUBKTNV-1">
          <mxGeometry x="578" y="130" width="60" height="30" as="geometry" />
        </mxCell>
        <mxCell id="qR_2f_jSWBMP4PxHylpx-61" value="Yes" style="text;html=1;strokeColor=none;fillColor=none;align=center;verticalAlign=middle;whiteSpace=wrap;rounded=0;" vertex="1" parent="WIyWlLk6GJQsqaUBKTNV-1">
          <mxGeometry x="568" y="225" width="60" height="30" as="geometry" />
        </mxCell>
        <mxCell id="qR_2f_jSWBMP4PxHylpx-62" value="Yes" style="text;html=1;strokeColor=none;fillColor=none;align=center;verticalAlign=middle;whiteSpace=wrap;rounded=0;" vertex="1" parent="WIyWlLk6GJQsqaUBKTNV-1">
          <mxGeometry x="568" y="330" width="60" height="30" as="geometry" />
        </mxCell>
        <mxCell id="qR_2f_jSWBMP4PxHylpx-63" value="Yes" style="text;html=1;strokeColor=none;fillColor=none;align=center;verticalAlign=middle;whiteSpace=wrap;rounded=0;" vertex="1" parent="WIyWlLk6GJQsqaUBKTNV-1">
          <mxGeometry x="578" y="460" width="60" height="30" as="geometry" />
        </mxCell>
        <mxCell id="qR_2f_jSWBMP4PxHylpx-64" value="Yes" style="text;html=1;strokeColor=none;fillColor=none;align=center;verticalAlign=middle;whiteSpace=wrap;rounded=0;" vertex="1" parent="WIyWlLk6GJQsqaUBKTNV-1">
          <mxGeometry x="578" y="560" width="60" height="30" as="geometry" />
        </mxCell>
        <mxCell id="qR_2f_jSWBMP4PxHylpx-65" value="" style="endArrow=classic;html=1;rounded=0;exitX=0.5;exitY=1;exitDx=0;exitDy=0;" edge="1" parent="WIyWlLk6GJQsqaUBKTNV-1" source="qR_2f_jSWBMP4PxHylpx-24">
          <mxGeometry width="50" height="50" relative="1" as="geometry">
            <mxPoint x="468" y="700" as="sourcePoint" />
            <mxPoint x="508" y="670" as="targetPoint" />
          </mxGeometry>
        </mxCell>
        <mxCell id="qR_2f_jSWBMP4PxHylpx-67" value="Limit=0" style="rounded=0;whiteSpace=wrap;html=1;" vertex="1" parent="WIyWlLk6GJQsqaUBKTNV-1">
          <mxGeometry x="638" y="25" width="120" height="60" as="geometry" />
        </mxCell>
        <mxCell id="qR_2f_jSWBMP4PxHylpx-69" value="limit=8000000&lt;br style=&quot;border-color: var(--border-color);&quot;&gt;tempo=30" style="rounded=0;whiteSpace=wrap;html=1;" vertex="1" parent="WIyWlLk6GJQsqaUBKTNV-1">
          <mxGeometry x="628" y="130" width="120" height="60" as="geometry" />
        </mxCell>
        <mxCell id="qR_2f_jSWBMP4PxHylpx-70" value="limit=30000000&lt;br style=&quot;border-color: var(--border-color);&quot;&gt;tempo=40" style="rounded=0;whiteSpace=wrap;html=1;" vertex="1" parent="WIyWlLk6GJQsqaUBKTNV-1">
          <mxGeometry x="618" y="230" width="120" height="60" as="geometry" />
        </mxCell>
        <mxCell id="qR_2f_jSWBMP4PxHylpx-71" value="limit=150000000&lt;br style=&quot;border-color: var(--border-color);&quot;&gt;tempo=50" style="rounded=0;whiteSpace=wrap;html=1;" vertex="1" parent="WIyWlLk6GJQsqaUBKTNV-1">
          <mxGeometry x="628" y="340" width="120" height="60" as="geometry" />
        </mxCell>
        <mxCell id="qR_2f_jSWBMP4PxHylpx-72" value="limit=500000000&lt;br style=&quot;border-color: var(--border-color);&quot;&gt;tempo=60" style="rounded=0;whiteSpace=wrap;html=1;" vertex="1" parent="WIyWlLk6GJQsqaUBKTNV-1">
          <mxGeometry x="628" y="460" width="120" height="60" as="geometry" />
        </mxCell>
        <mxCell id="qR_2f_jSWBMP4PxHylpx-73" value="limit=1000000000&lt;br style=&quot;border-color: var(--border-color);&quot;&gt;tempo=70" style="rounded=0;whiteSpace=wrap;html=1;" vertex="1" parent="WIyWlLk6GJQsqaUBKTNV-1">
          <mxGeometry x="628" y="570" width="120" height="60" as="geometry" />
        </mxCell>
        <mxCell id="qR_2f_jSWBMP4PxHylpx-75" value="limit=5000000000&lt;br style=&quot;border-color: var(--border-color);&quot;&gt;tempo=80" style="rounded=0;whiteSpace=wrap;html=1;" vertex="1" parent="WIyWlLk6GJQsqaUBKTNV-1">
          <mxGeometry x="448" y="670" width="120" height="60" as="geometry" />
        </mxCell>
        <mxCell id="qR_2f_jSWBMP4PxHylpx-76" value="No" style="text;html=1;strokeColor=none;fillColor=none;align=center;verticalAlign=middle;whiteSpace=wrap;rounded=0;" vertex="1" parent="WIyWlLk6GJQsqaUBKTNV-1">
          <mxGeometry x="498" y="640" width="60" height="30" as="geometry" />
        </mxCell>
        <mxCell id="qR_2f_jSWBMP4PxHylpx-78" value="" style="endArrow=classic;html=1;rounded=0;exitX=1;exitY=0.5;exitDx=0;exitDy=0;entryX=1;entryY=0.5;entryDx=0;entryDy=0;" edge="1" parent="WIyWlLk6GJQsqaUBKTNV-1" source="qR_2f_jSWBMP4PxHylpx-67" target="qR_2f_jSWBMP4PxHylpx-84">
          <mxGeometry width="50" height="50" relative="1" as="geometry">
            <mxPoint x="538" y="370" as="sourcePoint" />
            <mxPoint x="338" y="750" as="targetPoint" />
            <Array as="points">
              <mxPoint x="808" y="55" />
              <mxPoint x="808" y="160" />
              <mxPoint x="800" y="790" />
            </Array>
          </mxGeometry>
        </mxCell>
        <mxCell id="qR_2f_jSWBMP4PxHylpx-79" value="" style="endArrow=classic;html=1;rounded=0;" edge="1" parent="WIyWlLk6GJQsqaUBKTNV-1" source="qR_2f_jSWBMP4PxHylpx-70">
          <mxGeometry width="50" height="50" relative="1" as="geometry">
            <mxPoint x="738" y="310" as="sourcePoint" />
            <mxPoint x="808.7106781186548" y="260" as="targetPoint" />
          </mxGeometry>
        </mxCell>
        <mxCell id="qR_2f_jSWBMP4PxHylpx-80" value="" style="endArrow=classic;html=1;rounded=0;exitX=1;exitY=0.5;exitDx=0;exitDy=0;" edge="1" parent="WIyWlLk6GJQsqaUBKTNV-1" source="qR_2f_jSWBMP4PxHylpx-71">
          <mxGeometry width="50" height="50" relative="1" as="geometry">
            <mxPoint x="748" y="410" as="sourcePoint" />
            <mxPoint x="808" y="370" as="targetPoint" />
          </mxGeometry>
        </mxCell>
        <mxCell id="qR_2f_jSWBMP4PxHylpx-81" value="" style="endArrow=classic;html=1;rounded=0;exitX=1;exitY=0.5;exitDx=0;exitDy=0;" edge="1" parent="WIyWlLk6GJQsqaUBKTNV-1" source="qR_2f_jSWBMP4PxHylpx-72">
          <mxGeometry width="50" height="50" relative="1" as="geometry">
            <mxPoint x="748" y="540" as="sourcePoint" />
            <mxPoint x="808" y="490" as="targetPoint" />
          </mxGeometry>
        </mxCell>
        <mxCell id="qR_2f_jSWBMP4PxHylpx-82" value="" style="endArrow=classic;html=1;rounded=0;exitX=1;exitY=0.5;exitDx=0;exitDy=0;" edge="1" parent="WIyWlLk6GJQsqaUBKTNV-1" source="qR_2f_jSWBMP4PxHylpx-73">
          <mxGeometry width="50" height="50" relative="1" as="geometry">
            <mxPoint x="748" y="630" as="sourcePoint" />
            <mxPoint x="808" y="600" as="targetPoint" />
          </mxGeometry>
        </mxCell>
        <mxCell id="qR_2f_jSWBMP4PxHylpx-83" value="" style="endArrow=classic;html=1;rounded=0;exitX=1;exitY=0.5;exitDx=0;exitDy=0;" edge="1" parent="WIyWlLk6GJQsqaUBKTNV-1" source="qR_2f_jSWBMP4PxHylpx-69">
          <mxGeometry width="50" height="50" relative="1" as="geometry">
            <mxPoint x="758" y="220" as="sourcePoint" />
            <mxPoint x="808" y="160" as="targetPoint" />
          </mxGeometry>
        </mxCell>
        <mxCell id="qR_2f_jSWBMP4PxHylpx-84" value="limit != 0" style="rhombus;whiteSpace=wrap;html=1;" vertex="1" parent="WIyWlLk6GJQsqaUBKTNV-1">
          <mxGeometry x="448" y="750" width="80" height="80" as="geometry" />
        </mxCell>
        <mxCell id="qR_2f_jSWBMP4PxHylpx-88" value="" style="endArrow=classic;html=1;rounded=0;exitX=1;exitY=0.5;exitDx=0;exitDy=0;entryX=0;entryY=0.5;entryDx=0;entryDy=0;" edge="1" parent="WIyWlLk6GJQsqaUBKTNV-1" source="qR_2f_jSWBMP4PxHylpx-8" target="qR_2f_jSWBMP4PxHylpx-21">
          <mxGeometry width="50" height="50" relative="1" as="geometry">
            <mxPoint x="450" y="260" as="sourcePoint" />
            <mxPoint x="420" y="60" as="targetPoint" />
            <Array as="points">
              <mxPoint x="400" y="380" />
              <mxPoint x="400" y="50" />
            </Array>
          </mxGeometry>
        </mxCell>
        <mxCell id="qR_2f_jSWBMP4PxHylpx-89" value="i : int" style="shape=hexagon;perimeter=hexagonPerimeter2;whiteSpace=wrap;html=1;fixedSize=1;" vertex="1" parent="WIyWlLk6GJQsqaUBKTNV-1">
          <mxGeometry x="358" y="770" width="70" height="40" as="geometry" />
        </mxCell>
        <mxCell id="qR_2f_jSWBMP4PxHylpx-90" value="" style="endArrow=classic;html=1;rounded=0;entryX=1;entryY=0.5;entryDx=0;entryDy=0;exitX=0;exitY=0.5;exitDx=0;exitDy=0;" edge="1" parent="WIyWlLk6GJQsqaUBKTNV-1" source="qR_2f_jSWBMP4PxHylpx-84" target="qR_2f_jSWBMP4PxHylpx-89">
          <mxGeometry width="50" height="50" relative="1" as="geometry">
            <mxPoint x="430" y="870" as="sourcePoint" />
            <mxPoint x="480" y="820" as="targetPoint" />
          </mxGeometry>
        </mxCell>
        <mxCell id="qR_2f_jSWBMP4PxHylpx-91" value="Yes" style="text;html=1;strokeColor=none;fillColor=none;align=center;verticalAlign=middle;whiteSpace=wrap;rounded=0;" vertex="1" parent="WIyWlLk6GJQsqaUBKTNV-1">
          <mxGeometry x="408" y="760" width="60" height="30" as="geometry" />
        </mxCell>
        <mxCell id="qR_2f_jSWBMP4PxHylpx-92" value="nasabah[i].limit ==0" style="rhombus;whiteSpace=wrap;html=1;" vertex="1" parent="WIyWlLk6GJQsqaUBKTNV-1">
          <mxGeometry x="229" y="635" width="130" height="80" as="geometry" />
        </mxCell>
        <mxCell id="qR_2f_jSWBMP4PxHylpx-93" value="&lt;div&gt;nasabah[i].name=name;&lt;/div&gt;&lt;div&gt;nasabah[i].id=id;&lt;/div&gt;&lt;div&gt;nasabah[i].limit=limit;&lt;/div&gt;&lt;div&gt;nasabah[i].tempo=tempo;&lt;/div&gt;&lt;div&gt;found=1;&lt;/div&gt;&lt;div&gt;i++;&lt;/div&gt;" style="rounded=0;whiteSpace=wrap;html=1;" vertex="1" parent="WIyWlLk6GJQsqaUBKTNV-1">
          <mxGeometry x="20" y="630" width="150" height="90" as="geometry" />
        </mxCell>
        <mxCell id="qR_2f_jSWBMP4PxHylpx-94" value="&lt;div&gt;i++;&lt;/div&gt;&lt;div&gt;nasabah[i].name=name;&lt;/div&gt;&lt;div&gt;nasabah[i].id=id;&lt;/div&gt;&lt;div&gt;nasabah[i].limit=limit;&lt;/div&gt;&lt;div&gt;nasabah[i].tempo=tempo;&lt;/div&gt;&lt;div&gt;found=1;&lt;/div&gt;" style="rounded=0;whiteSpace=wrap;html=1;" vertex="1" parent="WIyWlLk6GJQsqaUBKTNV-1">
          <mxGeometry x="222.5" y="840" width="145" height="90" as="geometry" />
        </mxCell>
        <mxCell id="qR_2f_jSWBMP4PxHylpx-96" value="" style="endArrow=classic;html=1;rounded=0;exitX=0.5;exitY=1;exitDx=0;exitDy=0;entryX=0.5;entryY=0;entryDx=0;entryDy=0;" edge="1" parent="WIyWlLk6GJQsqaUBKTNV-1" target="qR_2f_jSWBMP4PxHylpx-94">
          <mxGeometry width="50" height="50" relative="1" as="geometry">
            <mxPoint x="295" y="715" as="sourcePoint" />
            <mxPoint x="291.06999999999994" y="840" as="targetPoint" />
          </mxGeometry>
        </mxCell>
        <mxCell id="qR_2f_jSWBMP4PxHylpx-97" value="No" style="text;html=1;strokeColor=none;fillColor=none;align=center;verticalAlign=middle;whiteSpace=wrap;rounded=0;" vertex="1" parent="WIyWlLk6GJQsqaUBKTNV-1">
          <mxGeometry x="252.5" y="770" width="60" height="30" as="geometry" />
        </mxCell>
        <mxCell id="qR_2f_jSWBMP4PxHylpx-98" value="" style="endArrow=classic;html=1;rounded=0;entryX=1;entryY=0.5;entryDx=0;entryDy=0;exitX=0;exitY=0.5;exitDx=0;exitDy=0;" edge="1" parent="WIyWlLk6GJQsqaUBKTNV-1" source="qR_2f_jSWBMP4PxHylpx-92" target="qR_2f_jSWBMP4PxHylpx-93">
          <mxGeometry width="50" height="50" relative="1" as="geometry">
            <mxPoint x="190" y="710" as="sourcePoint" />
            <mxPoint x="240" y="660" as="targetPoint" />
          </mxGeometry>
        </mxCell>
        <mxCell id="qR_2f_jSWBMP4PxHylpx-99" value="Yes" style="text;html=1;strokeColor=none;fillColor=none;align=center;verticalAlign=middle;whiteSpace=wrap;rounded=0;" vertex="1" parent="WIyWlLk6GJQsqaUBKTNV-1">
          <mxGeometry x="170" y="650" width="60" height="30" as="geometry" />
        </mxCell>
        <mxCell id="qR_2f_jSWBMP4PxHylpx-100" value="" style="endArrow=classic;html=1;rounded=0;exitX=0;exitY=0.5;exitDx=0;exitDy=0;entryX=1;entryY=0.5;entryDx=0;entryDy=0;" edge="1" parent="WIyWlLk6GJQsqaUBKTNV-1" source="qR_2f_jSWBMP4PxHylpx-89" target="qR_2f_jSWBMP4PxHylpx-92">
          <mxGeometry width="50" height="50" relative="1" as="geometry">
            <mxPoint x="340" y="760" as="sourcePoint" />
            <mxPoint x="390" y="710" as="targetPoint" />
          </mxGeometry>
        </mxCell>
        <mxCell id="qR_2f_jSWBMP4PxHylpx-102" value="Main()" style="shape=process;whiteSpace=wrap;html=1;backgroundOutline=1;" vertex="1" parent="WIyWlLk6GJQsqaUBKTNV-1">
          <mxGeometry x="408" y="1030" width="120" height="60" as="geometry" />
        </mxCell>
        <mxCell id="qR_2f_jSWBMP4PxHylpx-103" value="" style="endArrow=classic;html=1;rounded=0;exitX=0.5;exitY=1;exitDx=0;exitDy=0;entryX=0.667;entryY=0;entryDx=0;entryDy=0;entryPerimeter=0;" edge="1" parent="WIyWlLk6GJQsqaUBKTNV-1" source="qR_2f_jSWBMP4PxHylpx-84" target="qR_2f_jSWBMP4PxHylpx-102">
          <mxGeometry width="50" height="50" relative="1" as="geometry">
            <mxPoint x="460" y="960" as="sourcePoint" />
            <mxPoint x="510" y="910" as="targetPoint" />
          </mxGeometry>
        </mxCell>
        <mxCell id="qR_2f_jSWBMP4PxHylpx-104" value="No" style="text;html=1;strokeColor=none;fillColor=none;align=center;verticalAlign=middle;whiteSpace=wrap;rounded=0;" vertex="1" parent="WIyWlLk6GJQsqaUBKTNV-1">
          <mxGeometry x="478" y="900" width="60" height="30" as="geometry" />
        </mxCell>
        <mxCell id="qR_2f_jSWBMP4PxHylpx-105" value="" style="endArrow=classic;html=1;rounded=0;exitX=1;exitY=0.5;exitDx=0;exitDy=0;" edge="1" parent="WIyWlLk6GJQsqaUBKTNV-1" source="qR_2f_jSWBMP4PxHylpx-67">
          <mxGeometry width="50" height="50" relative="1" as="geometry">
            <mxPoint x="750" y="110" as="sourcePoint" />
            <mxPoint x="810" y="55" as="targetPoint" />
          </mxGeometry>
        </mxCell>
        <mxCell id="qR_2f_jSWBMP4PxHylpx-106" value="" style="endArrow=classic;html=1;rounded=0;exitX=0.6;exitY=1.015;exitDx=0;exitDy=0;exitPerimeter=0;" edge="1" parent="WIyWlLk6GJQsqaUBKTNV-1" source="qR_2f_jSWBMP4PxHylpx-93">
          <mxGeometry width="50" height="50" relative="1" as="geometry">
            <mxPoint x="70" y="790" as="sourcePoint" />
            <mxPoint x="110" y="1060" as="targetPoint" />
          </mxGeometry>
        </mxCell>
        <mxCell id="qR_2f_jSWBMP4PxHylpx-107" value="" style="endArrow=classic;html=1;rounded=0;exitX=0.5;exitY=1;exitDx=0;exitDy=0;" edge="1" parent="WIyWlLk6GJQsqaUBKTNV-1" source="qR_2f_jSWBMP4PxHylpx-94">
          <mxGeometry width="50" height="50" relative="1" as="geometry">
            <mxPoint x="240" y="1010" as="sourcePoint" />
            <mxPoint x="295" y="1060" as="targetPoint" />
          </mxGeometry>
        </mxCell>
      </root>
    </mxGraphModel>
  </diagram>
</mxfile>
